<?xml version="1.0" encoding="UTF-8"?>
<svg width="273px" height="35px" viewBox="0 0 273 35" version="1.1" xmlns="http://www.w3.org/2000/svg" xmlns:xlink="http://www.w3.org/1999/xlink">
    <!-- Generator: Sketch 51.3 (57544) - http://www.bohemiancoding.com/sketch -->
    <title>Logo</title>
    <desc>Created with Sketch.</desc>
    <defs></defs>
    <g id="Navigation-+-Interactions" stroke="none" stroke-width="1" fill="none" fill-rule="evenodd">
        <g id="Logo-hover" transform="translate(-50.000000, -69.000000)" fill="#113275">
            <g id="Logo" transform="translate(50.000000, 69.000000)">
                <path d="M100.495435,10.7980843 C100.495435,10.7980843 100.76145,19.0226907 91.6968918,21.0323808 C90.7148221,21.2473794 86.7337044,21.2929299 86.7337044,21.2929299 L86.7337044,35 L77.4432152,35 L88.4245406,11.4521901 L86.5533242,11.4540121 L75.5738208,35 L70.9058009,35 L70.9058009,0.243111886 L89.8894462,0.243111886 C90.9097784,0.243111886 91.9246445,0.39798374 92.8921381,0.720481601 C100.817933,3.35694716 100.495435,10.7980843 100.495435,10.7980843 Z M62.2038247,17.3136343 C69.3224639,19.3561207 69.0382285,25.6785364 69.0382285,26.0556949 C69.0382285,29.8946949 65.6310477,35 60.5804033,35 L46.4342259,35 L57.4137294,11.4521901 L55.544335,11.4540121 L44.5648315,35 L39.8913456,35 L39.8913456,0.243111886 L54.4365457,0.243111886 C57.0311048,0.243111886 59.6147317,0.186629209 61.3474745,0.718659579 C65.9171052,2.11797233 68.0561588,5.85493907 68.0525147,8.62076818 C68.0525147,15.6373742 62.1856045,17.3282104 62.2038247,17.3136343 Z M16.8099733,35 L27.7912987,11.4521901 L25.9219043,11.4540121 L14.9405789,35 L14.7911731,35 L1.42108547e-14,35 L16.3125613,0.243111886 L37.1036522,0.243111886 L37.1036522,35 L16.8099733,35 Z" id="Combined-Shape"></path>
                <rect id="Rectangle" x="115.448276" y="0.24137931" width="1.24137931" height="34.7586207"></rect>
                <path d="M132.349337,2.37406897 L134.882992,2.37406897 L134.882992,7.15089655 L139.385475,2.37406897 L142.548509,2.37406897 L138.046026,6.92496552 L142.984233,13.8965517 L139.805061,13.8965517 L136.335406,8.71627586 L134.882992,10.1848276 L134.882992,13.8965517 L132.349337,13.8965517 L132.349337,2.37406897 Z M144.000923,2.37406897 L152.618578,2.37406897 L152.618578,4.50427586 L146.534578,4.50427586 L146.534578,6.97337931 L152.118302,6.97337931 L152.118302,8.9422069 L146.534578,8.9422069 L146.534578,11.7663448 L152.747681,11.7663448 L152.747681,13.8965517 L144.000923,13.8965517 L144.000923,2.37406897 Z M154.458302,2.37406897 L163.075957,2.37406897 L163.075957,4.50427586 L156.991957,4.50427586 L156.991957,6.97337931 L162.575681,6.97337931 L162.575681,8.9422069 L156.991957,8.9422069 L156.991957,11.7663448 L163.205061,11.7663448 L163.205061,13.8965517 L154.458302,13.8965517 L154.458302,2.37406897 Z M167.449337,7.79641379 L169.418164,7.79641379 C169.708648,7.79641379 169.98837,7.77489677 170.257337,7.73186207 C170.526304,7.68882737 170.762991,7.60544889 170.967406,7.48172414 C171.17182,7.35799938 171.335888,7.18317354 171.459613,6.95724138 C171.583337,6.73130922 171.645199,6.4354501 171.645199,6.06965517 C171.645199,5.70386024 171.583337,5.40800113 171.459613,5.18206897 C171.335888,4.9561368 171.17182,4.78131096 170.967406,4.65758621 C170.762991,4.53386145 170.526304,4.45048297 170.257337,4.40744828 C169.98837,4.36441358 169.708648,4.34289655 169.418164,4.34289655 L167.449337,4.34289655 L167.449337,7.79641379 Z M164.915681,2.37406897 L170.112095,2.37406897 C170.832926,2.37406897 171.446162,2.47896447 171.951819,2.68875862 C172.457477,2.89855277 172.86899,3.17558449 173.186371,3.51986207 C173.503752,3.86413965 173.73506,4.25682538 173.880302,4.69793103 C174.025544,5.13903669 174.098164,5.5962735 174.098164,6.06965517 C174.098164,6.53227818 174.025544,6.98682535 173.880302,7.43331034 C173.73506,7.87979534 173.503752,8.27517069 173.186371,8.61944828 C172.86899,8.96372586 172.457477,9.24075757 171.951819,9.45055172 C171.446162,9.66034588 170.832926,9.76524138 170.112095,9.76524138 L167.449337,9.76524138 L167.449337,13.8965517 L164.915681,13.8965517 L164.915681,2.37406897 Z M175.679681,2.37406897 L178.213337,2.37406897 L178.213337,13.8965517 L175.679681,13.8965517 L175.679681,2.37406897 Z M180.440371,2.37406897 L182.957888,2.37406897 L187.766992,10.1041379 L187.799268,10.1041379 L187.799268,2.37406897 L190.171544,2.37406897 L190.171544,13.8965517 L187.637888,13.8965517 L182.844923,6.18262069 L182.812647,6.18262069 L182.812647,13.8965517 L180.440371,13.8965517 L180.440371,2.37406897 Z M200.72575,12.5893793 C200.273886,13.1703477 199.773615,13.5764816 199.224923,13.8077931 C198.67623,14.0391046 198.122167,14.1547586 197.562716,14.1547586 C196.680505,14.1547586 195.887064,14.0014498 195.182371,13.6948276 C194.477678,13.3882054 193.88327,12.9659337 193.39913,12.428 C192.914989,11.8900663 192.543821,11.2580036 192.285613,10.5317931 C192.027404,9.80558258 191.898302,9.02290075 191.898302,8.18372414 C191.898302,7.32303018 192.027404,6.52421058 192.285613,5.78724138 C192.543821,5.05027218 192.914989,4.40745102 193.39913,3.85875862 C193.88327,3.31006622 194.477678,2.8797257 195.182371,2.56772414 C195.887064,2.25572258 196.680505,2.09972414 197.562716,2.09972414 C198.154443,2.09972414 198.727334,2.18848187 199.281406,2.366 C199.835477,2.54351813 200.335748,2.80441207 200.782233,3.14868966 C201.228718,3.49296724 201.597197,3.91792851 201.887681,4.42358621 C202.178166,4.92924391 202.355681,5.51020362 202.420233,6.16648276 L199.999544,6.16648276 C199.848922,5.52096229 199.558442,5.0368292 199.128095,4.71406897 C198.697748,4.39130873 198.17596,4.22993103 197.562716,4.22993103 C196.992506,4.22993103 196.508373,4.34020579 196.110302,4.56075862 C195.712231,4.78131145 195.389476,5.07717056 195.142026,5.44834483 C194.894577,5.8195191 194.714372,6.24179074 194.601406,6.71517241 C194.48844,7.18855409 194.431957,7.67806644 194.431957,8.18372414 C194.431957,8.66786449 194.48844,9.13854944 194.601406,9.5957931 C194.714372,10.0530368 194.894577,10.4645499 195.142026,10.8303448 C195.389476,11.1961398 195.712231,11.4893092 196.110302,11.7098621 C196.508373,11.9304149 196.992506,12.0406897 197.562716,12.0406897 C198.401893,12.0406897 199.050093,11.828209 199.507337,11.4032414 C199.96458,10.9782737 200.230854,10.3623489 200.306164,9.55544828 L197.756371,9.55544828 L197.756371,7.66731034 L202.59775,7.66731034 L202.59775,13.8965517 L200.983957,13.8965517 L200.72575,12.5893793 Z M211.667268,7.03793103 L214.233199,7.03793103 C214.685063,7.03793103 215.056232,6.9303459 215.346716,6.71517241 C215.6372,6.49999892 215.78244,6.15034725 215.78244,5.6662069 C215.78244,5.39724003 215.734027,5.17669052 215.637199,5.00455172 C215.540371,4.83241293 215.411269,4.69793152 215.249888,4.60110345 C215.088508,4.50427538 214.902924,4.43703467 214.69313,4.39937931 C214.483336,4.36172395 214.265476,4.34289655 214.039544,4.34289655 L211.667268,4.34289655 L211.667268,7.03793103 Z M209.133613,2.37406897 L214.555957,2.37406897 C215.10465,2.37406897 215.604921,2.42248227 216.056785,2.51931034 C216.508649,2.61613842 216.895956,2.77482648 217.218716,2.99537931 C217.541476,3.21593214 217.791612,3.50910162 217.96913,3.87489655 C218.146648,4.24069148 218.235406,4.69254903 218.235406,5.23048276 C218.235406,5.81145118 218.103614,6.29558427 217.840026,6.68289655 C217.576439,7.07020883 217.186443,7.38758497 216.670026,7.63503448 C217.380099,7.8394493 217.909956,8.19716986 218.259613,8.7082069 C218.609269,9.21924393 218.784095,9.83516881 218.784095,10.556 C218.784095,11.1369684 218.671131,11.6399289 218.445199,12.0648966 C218.219267,12.4898642 217.915339,12.8368262 217.533406,13.1057931 C217.151473,13.37476 216.715753,13.5737925 216.226233,13.7028966 C215.736714,13.8320006 215.233753,13.8965517 214.717337,13.8965517 L209.133613,13.8965517 L209.133613,2.37406897 Z M211.667268,11.9277241 L214.37844,11.9277241 C214.62589,11.9277241 214.862577,11.9035175 215.088509,11.8551034 C215.314441,11.8066894 215.513474,11.7260006 215.685613,11.6130345 C215.857751,11.5000684 215.994922,11.3467596 216.09713,11.1531034 C216.199337,10.9594473 216.25044,10.7120015 216.25044,10.4107586 C216.25044,9.81903152 216.083683,9.39675988 215.750164,9.14393103 C215.416645,8.89110218 214.975546,8.76468966 214.426854,8.76468966 L211.667268,8.76468966 L211.667268,11.9277241 Z M223.028371,7.58662069 L225.804095,7.58662069 C226.385064,7.58662069 226.820783,7.45751853 227.111268,7.19931034 C227.401752,6.94110216 227.546992,6.52152015 227.546992,5.94055172 C227.546992,5.38110065 227.401752,4.97496678 227.111268,4.72213793 C226.820783,4.46930908 226.385064,4.34289655 225.804095,4.34289655 L223.028371,4.34289655 L223.028371,7.58662069 Z M220.494716,2.37406897 L226.707819,2.37406897 C227.224236,2.37406897 227.689541,2.45744744 228.10375,2.6242069 C228.517959,2.79096635 228.87299,3.01958475 229.168854,3.31006897 C229.464717,3.60055318 229.690646,3.93675671 229.846647,4.31868966 C230.002648,4.7006226 230.080647,5.11213573 230.080647,5.55324138 C230.080647,6.23103787 229.938097,6.81737684 229.652992,7.31227586 C229.367887,7.80717489 228.902581,8.18372285 228.257061,8.44193103 L228.257061,8.4742069 C228.569062,8.56027629 228.827267,8.69206808 229.031681,8.86958621 C229.236096,9.04710434 229.402853,9.25689534 229.531957,9.49896552 C229.661061,9.74103569 229.755198,10.0073089 229.814371,10.2977931 C229.873544,10.5882773 229.913888,10.8787572 229.935406,11.1692414 C229.946164,11.3521388 229.956923,11.5673091 229.967681,11.8147586 C229.97844,12.0622081 229.997268,12.3150332 230.024164,12.5732414 C230.051061,12.8314496 230.094095,13.0762057 230.153268,13.3075172 C230.21244,13.5388287 230.301198,13.7351716 230.419544,13.8965517 L227.885888,13.8965517 C227.746026,13.5307568 227.659958,13.095037 227.627681,12.5893793 C227.595405,12.0837216 227.546992,11.5995885 227.48244,11.1369655 C227.396371,10.5344797 227.213476,10.0933807 226.93375,9.81365517 C226.654025,9.53392964 226.196788,9.39406897 225.562026,9.39406897 L223.028371,9.39406897 L223.028371,13.8965517 L220.494716,13.8965517 L220.494716,2.37406897 Z M232.146302,2.37406897 L234.679957,2.37406897 L234.679957,13.8965517 L232.146302,13.8965517 L232.146302,2.37406897 Z M239.456785,4.50427586 L236.003268,4.50427586 L236.003268,2.37406897 L245.443957,2.37406897 L245.443957,4.50427586 L241.99044,4.50427586 L241.99044,13.8965517 L239.456785,13.8965517 L239.456785,4.50427586 Z M249.672095,9.44248276 L252.657613,9.44248276 L251.205199,5.21434483 L251.172923,5.21434483 L249.672095,9.44248276 Z M249.914164,2.37406897 L252.512371,2.37406897 L256.821199,13.8965517 L254.190716,13.8965517 L253.319268,11.3306207 L249.01044,11.3306207 L248.106716,13.8965517 L245.556923,13.8965517 L249.914164,2.37406897 Z M257.82175,2.37406897 L260.355406,2.37406897 L260.355406,13.8965517 L257.82175,13.8965517 L257.82175,2.37406897 Z M262.58244,2.37406897 L265.099957,2.37406897 L269.909061,10.1041379 L269.941337,10.1041379 L269.941337,2.37406897 L272.313613,2.37406897 L272.313613,13.8965517 L269.779957,13.8965517 L264.986992,6.18262069 L264.954716,6.18262069 L264.954716,13.8965517 L262.58244,13.8965517 L262.58244,2.37406897 Z M134.89913,21.8835862 L131.445613,21.8835862 L131.445613,19.7533793 L140.886302,19.7533793 L140.886302,21.8835862 L137.432785,21.8835862 L137.432785,31.2758621 L134.89913,31.2758621 L134.89913,21.8835862 Z M144.743268,24.965931 L147.518992,24.965931 C148.09996,24.965931 148.53568,24.8368289 148.826164,24.5786207 C149.116648,24.3204125 149.261888,23.9008305 149.261888,23.3198621 C149.261888,22.760411 149.116648,22.3542771 148.826164,22.1014483 C148.53568,21.8486194 148.09996,21.7222069 147.518992,21.7222069 L144.743268,21.7222069 L144.743268,24.965931 Z M142.209613,19.7533793 L148.422716,19.7533793 C148.939132,19.7533793 149.404438,19.8367578 149.818647,20.0035172 C150.232856,20.1702767 150.587887,20.3988951 150.88375,20.6893793 C151.179614,20.9798635 151.405543,21.3160671 151.561544,21.698 C151.717544,22.0799329 151.795544,22.4914461 151.795544,22.9325517 C151.795544,23.6103482 151.652993,24.1966872 151.367888,24.6915862 C151.082784,25.1864852 150.617478,25.5630332 149.971957,25.8212414 L149.971957,25.8535172 C150.283959,25.9395866 150.542163,26.0713784 150.746578,26.2488966 C150.950993,26.4264147 151.11775,26.6362057 151.246854,26.8782759 C151.375958,27.120346 151.470095,27.3866192 151.529268,27.6771034 C151.58844,27.9675877 151.628785,28.2580675 151.650302,28.5485517 C151.661061,28.7314492 151.671819,28.9466195 151.682578,29.194069 C151.693337,29.4415185 151.712164,29.6943435 151.739061,29.9525517 C151.765957,30.2107599 151.808992,30.4555161 151.868164,30.6868276 C151.927337,30.9181391 152.016095,31.114482 152.13444,31.2758621 L149.600785,31.2758621 C149.460922,30.9100671 149.374854,30.4743474 149.342578,29.9686897 C149.310302,29.463032 149.261889,28.9788989 149.197337,28.5162759 C149.111267,27.9137901 148.928373,27.4726911 148.648647,27.1929655 C148.368921,26.91324 147.911685,26.7733793 147.276923,26.7733793 L144.743268,26.7733793 L144.743268,31.2758621 L142.209613,31.2758621 L142.209613,19.7533793 Z M156.766026,26.8217931 L159.751544,26.8217931 L158.29913,22.5936552 L158.266854,22.5936552 L156.766026,26.8217931 Z M157.008095,19.7533793 L159.606302,19.7533793 L163.91513,31.2758621 L161.284647,31.2758621 L160.413199,28.709931 L156.104371,28.709931 L155.200647,31.2758621 L152.650854,31.2758621 L157.008095,19.7533793 Z M167.449337,29.1456552 L169.708647,29.1456552 C170.074442,29.1456552 170.429473,29.0864834 170.77375,28.9681379 C171.118028,28.8497925 171.424646,28.6534496 171.693613,28.3791034 C171.962579,28.1047572 172.17775,27.7470367 172.33913,27.305931 C172.50051,26.8648254 172.581199,26.3268997 172.581199,25.6921379 C172.581199,25.1111695 172.524717,24.586692 172.41175,24.1186897 C172.298784,23.6506873 172.1132,23.2499327 171.854992,22.9164138 C171.596784,22.5828949 171.255201,22.3273802 170.830233,22.1498621 C170.405266,21.9723439 169.880788,21.8835862 169.256785,21.8835862 L167.449337,21.8835862 L167.449337,29.1456552 Z M164.915681,19.7533793 L169.886164,19.7533793 C170.628513,19.7533793 171.319747,19.871723 171.959888,20.1084138 C172.60003,20.3451046 173.154093,20.7001356 173.622095,21.1735172 C174.090098,21.6468989 174.455887,22.2386171 174.719475,22.9486897 C174.983062,23.6587622 175.114854,24.4925469 175.114854,25.450069 C175.114854,26.2892456 175.007269,27.0638585 174.792095,27.773931 C174.576922,28.4840036 174.251477,29.0972388 173.81575,29.6136552 C173.380024,30.1300715 172.836719,30.5362054 172.185819,30.832069 C171.53492,31.1279325 170.768376,31.2758621 169.886164,31.2758621 L164.915681,31.2758621 L164.915681,19.7533793 Z M176.873888,19.7533793 L179.407544,19.7533793 L179.407544,31.2758621 L176.873888,31.2758621 L176.873888,19.7533793 Z M181.634578,19.7533793 L184.152095,19.7533793 L188.961199,27.4834483 L188.993475,27.4834483 L188.993475,19.7533793 L191.36575,19.7533793 L191.36575,31.2758621 L188.832095,31.2758621 L184.03913,23.561931 L184.006854,23.561931 L184.006854,31.2758621 L181.634578,31.2758621 L181.634578,19.7533793 Z M201.919957,29.9686897 C201.468093,30.5496581 200.967822,30.9557919 200.41913,31.1871034 C199.870437,31.4184149 199.316374,31.534069 198.756923,31.534069 C197.874712,31.534069 197.081271,31.3807602 196.376578,31.0741379 C195.671885,30.7675157 195.077477,30.3452441 194.593337,29.8073103 C194.109196,29.2693766 193.738028,28.637314 193.479819,27.9111034 C193.221611,27.1848929 193.092509,26.4022111 193.092509,25.5630345 C193.092509,24.7023405 193.221611,23.9035209 193.479819,23.1665517 C193.738028,22.4295825 194.109196,21.7867614 194.593337,21.238069 C195.077477,20.6893766 195.671885,20.259036 196.376578,19.9470345 C197.081271,19.6350329 197.874712,19.4790345 198.756923,19.4790345 C199.34865,19.4790345 199.921541,19.5677922 200.475613,19.7453103 C201.029684,19.9228285 201.529955,20.1837224 201.97644,20.528 C202.422925,20.8722776 202.791404,21.2972389 203.081888,21.8028966 C203.372373,22.3085543 203.549888,22.889514 203.61444,23.5457931 L201.19375,23.5457931 C201.043129,22.9002726 200.752649,22.4161395 200.322302,22.0933793 C199.891955,21.7706191 199.370167,21.6092414 198.756923,21.6092414 C198.186713,21.6092414 197.70258,21.7195161 197.304509,21.940069 C196.906438,22.1606218 196.583683,22.4564809 196.336233,22.8276552 C196.088784,23.1988294 195.908579,23.6211011 195.795613,24.0944828 C195.682646,24.5678644 195.626164,25.0573768 195.626164,25.5630345 C195.626164,26.0471748 195.682646,26.5178598 195.795613,26.9751034 C195.908579,27.4323471 196.088784,27.8438602 196.336233,28.2096552 C196.583683,28.5754501 196.906438,28.8686196 197.304509,29.0891724 C197.70258,29.3097252 198.186713,29.42 198.756923,29.42 C199.596099,29.42 200.2443,29.2075194 200.701544,28.7825517 C201.158787,28.3575841 201.42506,27.7416592 201.500371,26.9347586 L198.950578,26.9347586 L198.950578,25.0466207 L203.791957,25.0466207 L203.791957,31.2758621 L202.178164,31.2758621 L201.919957,29.9686897 Z" id="KEEPINGBRITAINTRADING" fill-rule="nonzero"></path>
            </g>
        </g>
    </g>
</svg>