<?xml version="1.0" encoding="UTF-8"?>
<svg width="260px" height="35px" viewBox="0 0 260 35" version="1.1" xmlns="http://www.w3.org/2000/svg" xmlns:xlink="http://www.w3.org/1999/xlink">
    <!-- Generator: Sketch 51.3 (57544) - http://www.bohemiancoding.com/sketch -->
    <title>Logo</title>
    <desc>Created with Sketch.</desc>
    <defs></defs>
    <g id="Symbols" stroke="none" stroke-width="1" fill="none" fill-rule="evenodd">
        <g id="Logo" fill="#113275">
            <path d="M100.495435,10.7980843 C100.495435,10.7980843 100.76145,19.0226907 91.6968918,21.0323808 C90.7148221,21.2473794 86.7337044,21.2929299 86.7337044,21.2929299 L86.7337044,35 L77.4432152,35 L88.4245406,11.4521901 L86.5533242,11.4540121 L75.5738208,35 L70.9058009,35 L70.9058009,0.243111886 L89.8894462,0.243111886 C90.9097784,0.243111886 91.9246445,0.39798374 92.8921381,0.720481601 C100.817933,3.35694716 100.495435,10.7980843 100.495435,10.7980843 Z M62.2038247,17.3136343 C69.3224639,19.3561207 69.0382285,25.6785364 69.0382285,26.0556949 C69.0382285,29.8946949 65.6310477,35 60.5804033,35 L46.4342259,35 L57.4137294,11.4521901 L55.544335,11.4540121 L44.5648315,35 L39.8913456,35 L39.8913456,0.243111886 L54.4365457,0.243111886 C57.0311048,0.243111886 59.6147317,0.186629209 61.3474745,0.718659579 C65.9171052,2.11797233 68.0561588,5.85493907 68.0525147,8.62076818 C68.0525147,15.6373742 62.1856045,17.3282104 62.2038247,17.3136343 Z M16.8099733,35 L27.7912987,11.4521901 L25.9219043,11.4540121 L14.9405789,35 L14.7911731,35 L1.42108547e-14,35 L16.3125613,0.243111886 L37.1036522,0.243111886 L37.1036522,35 L16.8099733,35 Z" id="Combined-Shape"></path>
            <rect id="Rectangle" x="115.448276" y="0.24137931" width="1.24137931" height="34.7586207"></rect>
            <path d="M136.834925,9.48386825 L139.877817,9.48386825 L138.397491,5.17447598 L138.364595,5.17447598 L136.834925,9.48386825 Z M137.081646,2.27961706 L139.729784,2.27961706 L144.121417,14.0235334 L141.440383,14.0235334 L140.552187,11.4082915 L136.160555,11.4082915 L135.239463,14.0235334 L132.640669,14.0235334 L137.081646,2.27961706 Z M146.901139,10.1253427 C146.901139,10.5200981 146.972414,10.8545387 147.114964,11.1286745 C147.257515,11.4028102 147.446666,11.6248568 147.682422,11.794821 C147.918179,11.9647851 148.195052,12.0908857 148.513049,12.1731264 C148.831047,12.2553671 149.160005,12.2964869 149.499933,12.2964869 C149.730207,12.2964869 149.976926,12.2772976 150.240096,12.2389186 C150.503266,12.2005396 150.749985,12.1265241 150.980259,12.0168698 C151.210533,11.9072155 151.402425,11.7564431 151.555941,11.5645481 C151.709457,11.3726531 151.786214,11.1286759 151.786214,10.8326093 C151.786214,10.5146119 151.684785,10.2569282 151.481925,10.0595504 C151.279064,9.86217269 151.013156,9.69769371 150.684194,9.56610856 C150.355231,9.4345234 149.982412,9.31938812 149.565725,9.22069925 C149.149039,9.12201039 148.726876,9.01235774 148.299225,8.89173801 C147.860607,8.78208372 147.432962,8.64775922 147.016276,8.48876049 C146.599589,8.32976176 146.22677,8.12416304 145.897808,7.87195816 C145.568845,7.61975328 145.302937,7.30450191 145.100077,6.92619459 C144.897216,6.54788727 144.795787,6.09008746 144.795787,5.55278141 C144.795787,4.94968278 144.924629,4.42609138 145.182317,3.98199148 C145.440004,3.53789158 145.777186,3.16781389 146.193873,2.87174729 C146.610559,2.57568069 147.082065,2.35637539 147.608406,2.21382481 C148.134747,2.07127422 148.661079,2 149.18742,2 C149.801484,2 150.390867,2.06853291 150.955587,2.20560078 C151.520306,2.34266865 152.021967,2.56471526 152.460584,2.87174729 C152.899201,3.17877932 153.247349,3.57078754 153.505036,4.04778373 C153.762724,4.52477991 153.891566,5.10319765 153.891566,5.78305428 L151.39146,5.78305428 C151.369529,5.43216053 151.295514,5.14158101 151.169411,4.91130699 C151.043309,4.68103297 150.876089,4.50010609 150.667746,4.36852094 C150.459402,4.23693579 150.220908,4.14373103 149.952255,4.08890388 C149.683602,4.03407674 149.390281,4.00666357 149.072283,4.00666357 C148.86394,4.00666357 148.6556,4.0285941 148.447257,4.07245582 C148.238914,4.11631754 148.049763,4.1930744 147.879799,4.30272869 C147.709835,4.41238299 147.570028,4.5494488 147.460373,4.71393024 C147.350719,4.87841169 147.295893,5.08675172 147.295893,5.3389566 C147.295893,5.56923062 147.339754,5.75564013 147.427477,5.89819071 C147.515201,6.0407413 147.687904,6.17232448 147.945591,6.2929442 C148.203279,6.41356393 148.55965,6.53418184 149.014715,6.65480157 C149.469781,6.77542129 150.064646,6.928935 150.79933,7.11534731 C151.018639,7.15920903 151.322925,7.2387072 151.712197,7.35384421 C152.10147,7.46898122 152.487996,7.65264941 152.871786,7.90485429 C153.255576,8.15705917 153.587275,8.49424107 153.866894,8.91641011 C154.146512,9.33857914 154.286319,9.87861845 154.286319,10.5365442 C154.286319,11.0738503 154.182149,11.5727698 153.973806,12.0333179 C153.765463,12.4938659 153.455694,12.8913568 153.04449,13.2258024 C152.633287,13.560248 152.123402,13.820673 151.514821,14.0070853 C150.906239,14.1934976 150.201721,14.2867024 149.401245,14.2867024 C148.754284,14.2867024 148.126523,14.2072042 147.517942,14.0482055 C146.90936,13.8892067 146.372062,13.639747 145.906032,13.2998186 C145.440001,12.9598903 145.069923,12.5267624 144.795787,12.0004217 C144.521652,11.4740811 144.390068,10.849061 144.401034,10.1253427 L146.901139,10.1253427 Z M157.575932,10.1253427 C157.575932,10.5200981 157.647206,10.8545387 157.789756,11.1286745 C157.932307,11.4028102 158.121458,11.6248568 158.357215,11.794821 C158.592971,11.9647851 158.869844,12.0908857 159.187842,12.1731264 C159.505839,12.2553671 159.834797,12.2964869 160.174725,12.2964869 C160.404999,12.2964869 160.651718,12.2772976 160.914888,12.2389186 C161.178059,12.2005396 161.424777,12.1265241 161.655051,12.0168698 C161.885325,11.9072155 162.077217,11.7564431 162.230733,11.5645481 C162.384249,11.3726531 162.461006,11.1286759 162.461006,10.8326093 C162.461006,10.5146119 162.359577,10.2569282 162.156717,10.0595504 C161.953856,9.86217269 161.687949,9.69769371 161.358986,9.56610856 C161.030023,9.4345234 160.657204,9.31938812 160.240518,9.22069925 C159.823831,9.12201039 159.401669,9.01235774 158.974017,8.89173801 C158.5354,8.78208372 158.107754,8.64775922 157.691068,8.48876049 C157.274382,8.32976176 156.901563,8.12416304 156.5726,7.87195816 C156.243637,7.61975328 155.977729,7.30450191 155.774869,6.92619459 C155.572008,6.54788727 155.47058,6.09008746 155.47058,5.55278141 C155.47058,4.94968278 155.599422,4.42609138 155.857109,3.98199148 C156.114797,3.53789158 156.451979,3.16781389 156.868665,2.87174729 C157.285351,2.57568069 157.756858,2.35637539 158.283198,2.21382481 C158.809539,2.07127422 159.335872,2 159.862212,2 C160.476276,2 161.065659,2.06853291 161.630379,2.20560078 C162.195099,2.34266865 162.696759,2.56471526 163.135377,2.87174729 C163.573994,3.17877932 163.922141,3.57078754 164.179829,4.04778373 C164.437516,4.52477991 164.566358,5.10319765 164.566358,5.78305428 L162.066253,5.78305428 C162.044322,5.43216053 161.970306,5.14158101 161.844204,4.91130699 C161.718101,4.68103297 161.550881,4.50010609 161.342538,4.36852094 C161.134195,4.23693579 160.8957,4.14373103 160.627047,4.08890388 C160.358394,4.03407674 160.065073,4.00666357 159.747076,4.00666357 C159.538733,4.00666357 159.330393,4.0285941 159.122049,4.07245582 C158.913706,4.11631754 158.724555,4.1930744 158.554591,4.30272869 C158.384627,4.41238299 158.24482,4.5494488 158.135166,4.71393024 C158.025511,4.87841169 157.970685,5.08675172 157.970685,5.3389566 C157.970685,5.56923062 158.014546,5.75564013 158.10227,5.89819071 C158.189993,6.0407413 158.362696,6.17232448 158.620384,6.2929442 C158.878071,6.41356393 159.234442,6.53418184 159.689508,6.65480157 C160.144573,6.77542129 160.739439,6.928935 161.474122,7.11534731 C161.693431,7.15920903 161.997717,7.2387072 162.38699,7.35384421 C162.776262,7.46898122 163.162788,7.65264941 163.546578,7.90485429 C163.930368,8.15705917 164.262067,8.49424107 164.541686,8.91641011 C164.821304,9.33857914 164.961111,9.87861845 164.961111,10.5365442 C164.961111,11.0738503 164.856941,11.5727698 164.648598,12.0333179 C164.440255,12.4938659 164.130486,12.8913568 163.719283,13.2258024 C163.308079,13.560248 162.798194,13.820673 162.189613,14.0070853 C161.581032,14.1934976 160.876513,14.2867024 160.076037,14.2867024 C159.429077,14.2867024 158.801315,14.2072042 158.192734,14.0482055 C157.584153,13.8892067 157.046855,13.639747 156.580824,13.2998186 C156.114793,12.9598903 155.744715,12.5267624 155.47058,12.0004217 C155.196444,11.4740811 155.064861,10.849061 155.075826,10.1253427 L157.575932,10.1253427 Z M168.563237,8.2009194 C168.563237,8.69436373 168.620805,9.17409408 168.735942,9.64012484 C168.851079,10.1061556 169.034747,10.525577 169.286952,10.8984016 C169.539157,11.2712262 169.868115,11.5700297 170.273836,11.794821 C170.679556,12.0196123 171.172993,12.1320062 171.754161,12.1320062 C172.335329,12.1320062 172.828766,12.0196123 173.234487,11.794821 C173.640208,11.5700297 173.969166,11.2712262 174.22137,10.8984016 C174.473575,10.525577 174.657243,10.1061556 174.77238,9.64012484 C174.887518,9.17409408 174.945085,8.69436373 174.945085,8.2009194 C174.945085,7.68554422 174.887518,7.18662466 174.77238,6.70414576 C174.657243,6.22166686 174.473575,5.7912802 174.22137,5.41297288 C173.969166,5.03466556 173.640208,4.73312077 173.234487,4.50832947 C172.828766,4.28353816 172.335329,4.17114419 171.754161,4.17114419 C171.172993,4.17114419 170.679556,4.28353816 170.273836,4.50832947 C169.868115,4.73312077 169.539157,5.03466556 169.286952,5.41297288 C169.034747,5.7912802 168.851079,6.22166686 168.735942,6.70414576 C168.620805,7.18662466 168.563237,7.68554422 168.563237,8.2009194 Z M165.980891,8.2009194 C165.980891,7.32368504 166.112474,6.50951411 166.375645,5.75838219 C166.638815,5.00725026 167.017117,4.35207567 167.510561,3.79283877 C168.004005,3.23360186 168.609836,2.79499126 169.328072,2.4769938 C170.046308,2.15899634 170.854996,2 171.754161,2 C172.664292,2 173.475721,2.15899634 174.188474,2.4769938 C174.901227,2.79499126 175.504317,3.23360186 175.997761,3.79283877 C176.491205,4.35207567 176.869507,5.00725026 177.132677,5.75838219 C177.395848,6.50951411 177.527431,7.32368504 177.527431,8.2009194 C177.527431,9.05622291 177.395848,9.85394594 177.132677,10.5941124 C176.869507,11.3342789 176.491205,11.9784883 175.997761,12.5267597 C175.504317,13.0750312 174.901227,13.5054179 174.188474,13.8179326 C173.475721,14.1304473 172.664292,14.2867024 171.754161,14.2867024 C170.854996,14.2867024 170.046308,14.1304473 169.328072,13.8179326 C168.609836,13.5054179 168.004005,13.0750312 167.510561,12.5267597 C167.017117,11.9784883 166.638815,11.3342789 166.375645,10.5941124 C166.112474,9.85394594 165.980891,9.05622291 165.980891,8.2009194 Z M187.116651,6.22715195 C187.072789,5.93108536 186.974102,5.65969505 186.820586,5.41297288 C186.66707,5.16625072 186.475178,4.94968673 186.244904,4.76327443 C186.01463,4.57686213 185.754205,4.43157237 185.463621,4.32740078 C185.173037,4.2232292 184.868751,4.17114419 184.550753,4.17114419 C183.969586,4.17114419 183.476149,4.28353816 183.070428,4.50832947 C182.664707,4.73312077 182.335749,5.03466556 182.083544,5.41297288 C181.831339,5.7912802 181.647671,6.22166686 181.532534,6.70414576 C181.417397,7.18662466 181.359829,7.68554422 181.359829,8.2009194 C181.359829,8.69436373 181.417397,9.17409408 181.532534,9.64012484 C181.647671,10.1061556 181.831339,10.525577 182.083544,10.8984016 C182.335749,11.2712262 182.664707,11.5700297 183.070428,11.794821 C183.476149,12.0196123 183.969586,12.1320062 184.550753,12.1320062 C185.340264,12.1320062 185.95706,11.8907704 186.40116,11.4082915 C186.84526,10.9258126 187.116651,10.2898272 187.215339,9.50031631 L189.715445,9.50031631 C189.649652,10.2350001 189.479691,10.8983986 189.205555,11.4905318 C188.931419,12.082665 188.569565,12.5870672 188.119983,13.0037535 C187.6704,13.4204399 187.144068,13.7384325 186.540969,13.9577411 C185.93787,14.1770497 185.274472,14.2867024 184.550753,14.2867024 C183.651588,14.2867024 182.8429,14.1304473 182.124664,13.8179326 C181.406429,13.5054179 180.800598,13.0750312 180.307153,12.5267597 C179.813709,11.9784883 179.435407,11.3342789 179.172237,10.5941124 C178.909067,9.85394594 178.777484,9.05622291 178.777484,8.2009194 C178.777484,7.32368504 178.909067,6.50951411 179.172237,5.75838219 C179.435407,5.00725026 179.813709,4.35207567 180.307153,3.79283877 C180.800598,3.23360186 181.406429,2.79499126 182.124664,2.4769938 C182.8429,2.15899634 183.651588,2 184.550753,2 C185.197714,2 185.809027,2.09320475 186.384712,2.27961706 C186.960397,2.46602936 187.475765,2.73741967 187.93083,3.09379613 C188.385895,3.45017259 188.761456,3.89152451 189.057522,4.41786513 C189.353589,4.94420574 189.539999,5.54729532 189.616757,6.22715195 L187.116651,6.22715195 Z M191.475388,2.27961706 L194.057733,2.27961706 L194.057733,14.0235334 L191.475388,14.0235334 L191.475388,2.27961706 Z M199.288217,9.48386825 L202.331109,9.48386825 L200.850783,5.17447598 L200.817887,5.17447598 L199.288217,9.48386825 Z M199.534938,2.27961706 L202.183076,2.27961706 L206.574709,14.0235334 L203.893674,14.0235334 L203.005479,11.4082915 L198.613846,11.4082915 L197.692755,14.0235334 L195.093961,14.0235334 L199.534938,2.27961706 Z M210.193282,4.45076125 L206.673397,4.45076125 L206.673397,2.27961706 L216.295513,2.27961706 L216.295513,4.45076125 L212.775628,4.45076125 L212.775628,14.0235334 L210.193282,14.0235334 L210.193282,4.45076125 Z M217.644254,2.27961706 L226.427519,2.27961706 L226.427519,4.45076125 L220.2266,4.45076125 L220.2266,6.96731475 L225.91763,6.96731475 L225.91763,8.97397832 L220.2266,8.97397832 L220.2266,11.8523892 L226.559104,11.8523892 L226.559104,14.0235334 L217.644254,14.0235334 L217.644254,2.27961706 Z M230.884944,11.8523892 L233.187673,11.8523892 C233.560498,11.8523892 233.922351,11.7920802 234.273245,11.6714605 C234.624139,11.5508408 234.936649,11.3507247 235.210785,11.0711062 C235.48492,10.7914878 235.704226,10.4268927 235.868707,9.97731011 C236.033189,9.5277275 236.115428,8.97946424 236.115428,8.3325039 C236.115428,7.74037071 236.05786,7.20581403 235.942723,6.72881785 C235.827586,6.25182166 235.638436,5.84336554 235.375265,5.50343722 C235.112095,5.16350891 234.763948,4.90308386 234.330813,4.72215427 C233.897679,4.54122469 233.363122,4.45076125 232.727127,4.45076125 L230.884944,4.45076125 L230.884944,11.8523892 Z M228.302599,2.27961706 L233.368602,2.27961706 C234.125216,2.27961706 234.829735,2.40023497 235.482178,2.64147442 C236.134621,2.88271387 236.699332,3.24456762 237.176328,3.72704652 C237.653324,4.20952542 238.026143,4.812615 238.294796,5.53633335 C238.563449,6.2600517 238.697774,7.10985974 238.697774,8.08578297 C238.697774,8.94108647 238.588121,9.73058556 238.368813,10.4543039 C238.149504,11.1780223 237.817805,11.8030424 237.373705,12.329383 C236.929605,12.8557236 236.375859,13.2696624 235.712451,13.5712117 C235.049042,13.872761 234.267767,14.0235334 233.368602,14.0235334 L228.302599,14.0235334 L228.302599,2.27961706 Z M136.45662,24.7464046 L139.071862,24.7464046 C139.53241,24.7464046 139.910711,24.636752 140.206778,24.4174434 C140.502845,24.1981348 140.650876,23.8417637 140.650876,23.3483193 C140.650876,23.0741836 140.601532,22.8493957 140.502843,22.6739488 C140.404154,22.4985019 140.272571,22.3614361 140.10809,22.2627472 C139.943608,22.1640584 139.754457,22.0955255 139.540632,22.0571465 C139.326806,22.0187675 139.104759,21.9995783 138.874485,21.9995783 L136.45662,21.9995783 L136.45662,24.7464046 Z M133.874274,19.9929147 L139.400823,19.9929147 C139.96006,19.9929147 140.469945,20.0422584 140.930493,20.1409472 C141.391041,20.2396361 141.78579,20.4013738 142.114753,20.6261651 C142.443716,20.8509564 142.698659,21.1497598 142.879588,21.5225845 C143.060518,21.8954091 143.150981,22.3559502 143.150981,22.9042217 C143.150981,23.4963549 143.016657,23.9897918 142.748004,24.3845473 C142.479351,24.7793027 142.08186,25.102778 141.555519,25.3549829 C142.279237,25.5633261 142.819277,25.9279211 143.175653,26.448779 C143.53203,26.969637 143.710215,27.5973984 143.710215,28.3320822 C143.710215,28.9242154 143.59508,29.4368415 143.364806,29.869976 C143.134532,30.3031104 142.824763,30.6567402 142.43549,30.930876 C142.046218,31.2050117 141.602124,31.4078691 141.103197,31.5394543 C140.60427,31.6710394 140.091644,31.736831 139.565304,31.736831 L133.874274,31.736831 L133.874274,19.9929147 Z M136.45662,29.7301674 L139.219894,29.7301674 C139.472099,29.7301674 139.713335,29.7054956 139.943609,29.6561512 C140.173883,29.6068067 140.37674,29.5245672 140.552187,29.4094302 C140.727634,29.2942932 140.867441,29.1380382 140.971613,28.9406605 C141.075785,28.7432827 141.12787,28.4910816 141.12787,28.1840496 C141.12787,27.580951 140.957908,27.1505643 140.61798,26.8928767 C140.278051,26.6351891 139.828475,26.5063473 139.269238,26.5063473 L136.45662,26.5063473 L136.45662,29.7301674 Z M148.036056,25.3056387 L150.865122,25.3056387 C151.457255,25.3056387 151.901349,25.1740556 152.197415,24.9108852 C152.493482,24.6477149 152.641513,24.2200696 152.641513,23.6279364 C152.641513,23.0577341 152.493482,22.6437953 152.197415,22.3861077 C151.901349,22.1284201 151.457255,21.9995783 150.865122,21.9995783 L148.036056,21.9995783 L148.036056,25.3056387 Z M145.45371,19.9929147 L151.786214,19.9929147 C152.312554,19.9929147 152.786802,20.0778955 153.208971,20.2478596 C153.63114,20.4178238 153.992994,20.6508357 154.294543,20.9469023 C154.596093,21.2429689 154.826363,21.5856334 154.985362,21.9749062 C155.144361,22.3641789 155.223859,22.7836003 155.223859,23.2331829 C155.223859,23.924005 155.078569,24.5216119 154.787985,25.0260217 C154.497401,25.5304314 154.023153,25.9142157 153.365228,26.177386 L153.365228,26.2102821 C153.683225,26.2980056 153.946392,26.4323301 154.154735,26.6132597 C154.363078,26.7941893 154.533039,27.0080119 154.664625,27.2547341 C154.79621,27.5014563 154.892156,27.7728466 154.952466,28.0689132 C155.012776,28.3649798 155.053895,28.6610419 155.075826,28.9571085 C155.086792,29.1435208 155.097757,29.3628261 155.108722,29.615031 C155.119688,29.8672359 155.138877,30.1249196 155.16629,30.3880899 C155.193704,30.6512602 155.237565,30.90072 155.297875,31.1364767 C155.358185,31.3722335 155.448648,31.5723496 155.569268,31.736831 L152.986922,31.736831 C152.844372,31.3640064 152.75665,30.9199132 152.723753,30.404538 C152.690857,29.8891628 152.641513,29.3957259 152.575721,28.9242124 C152.487997,28.3101483 152.301588,27.8605725 152.016487,27.5754713 C151.731385,27.2903701 151.265362,27.1478217 150.618401,27.1478217 L148.036056,27.1478217 L148.036056,31.736831 L145.45371,31.736831 L145.45371,19.9929147 Z M157.329211,19.9929147 L159.911556,19.9929147 L159.911556,31.736831 L157.329211,31.736831 L157.329211,19.9929147 Z M164.780183,22.1640589 L161.260297,22.1640589 L161.260297,19.9929147 L170.882414,19.9929147 L170.882414,22.1640589 L167.362529,22.1640589 L167.362529,31.736831 L164.780183,31.736831 L164.780183,22.1640589 Z M172.231155,19.9929147 L174.813501,19.9929147 L174.813501,31.736831 L172.231155,31.736831 L172.231155,19.9929147 Z M178.843276,27.8386403 C178.843276,28.2333958 178.91455,28.5678363 179.057101,28.8419721 C179.199651,29.1161078 179.388802,29.3381544 179.624559,29.5081186 C179.860316,29.6780828 180.137188,29.8041833 180.455186,29.886424 C180.773183,29.9686647 181.102141,30.0097845 181.44207,30.0097845 C181.672344,30.0097845 181.919062,29.9905953 182.182232,29.9522163 C182.445403,29.9138373 182.692121,29.8398217 182.922395,29.7301674 C183.152669,29.6205131 183.344561,29.4697407 183.498077,29.2778457 C183.651593,29.0859507 183.72835,28.8419736 183.72835,28.545907 C183.72835,28.2279095 183.626922,27.9702258 183.424061,27.772848 C183.221201,27.5754703 182.955293,27.4109913 182.62633,27.2794062 C182.297367,27.147821 181.924548,27.0326857 181.507862,26.9339969 C181.091176,26.835308 180.669013,26.7256554 180.241361,26.6050356 C179.802744,26.4953813 179.375099,26.3610568 178.958412,26.2020581 C178.541726,26.0430594 178.168907,25.8374607 177.839944,25.5852558 C177.510981,25.3330509 177.245074,25.0177995 177.042213,24.6394922 C176.839353,24.2611849 176.737924,23.8033851 176.737924,23.266079 C176.737924,22.6629804 176.866766,22.139389 177.124453,21.6952891 C177.382141,21.2511892 177.719323,20.8811115 178.136009,20.5850449 C178.552696,20.2889783 179.024202,20.069673 179.550543,19.9271224 C180.076883,19.7845718 180.603216,19.7132976 181.129556,19.7132976 C181.743621,19.7132976 182.333004,19.7818305 182.897723,19.9188984 C183.462443,20.0559663 183.964104,20.2780129 184.402721,20.5850449 C184.841338,20.8920769 185.189485,21.2840852 185.447173,21.7610814 C185.70486,22.2380775 185.833702,22.8164953 185.833702,23.4963519 L183.333597,23.4963519 C183.311666,23.1454582 183.23765,22.8548786 183.111548,22.6246046 C182.985446,22.3943306 182.818225,22.2134037 182.609882,22.0818186 C182.401539,21.9502334 182.163044,21.8570287 181.894391,21.8022015 C181.625738,21.7473744 181.332418,21.7199612 181.01442,21.7199612 C180.806077,21.7199612 180.597737,21.7418917 180.389394,21.7857534 C180.181051,21.8296152 179.9919,21.906372 179.821936,22.0160263 C179.651971,22.1256806 179.512164,22.2627464 179.40251,22.4272279 C179.292856,22.5917093 179.238029,22.8000493 179.238029,23.0522542 C179.238029,23.2825282 179.28189,23.4689378 179.369614,23.6114883 C179.457337,23.7540389 179.63004,23.8856221 179.887728,24.0062418 C180.145415,24.1268616 180.501787,24.2474795 180.956852,24.3680992 C181.411917,24.4887189 182.006783,24.6422326 182.741467,24.8286449 C182.960775,24.8725067 183.265061,24.9520048 183.654334,25.0671418 C184.043607,25.1822788 184.430132,25.365947 184.813922,25.6181519 C185.197712,25.8703568 185.529412,26.2075387 185.80903,26.6297077 C186.088649,27.0518768 186.228456,27.5919161 186.228456,28.2498418 C186.228456,28.7871479 186.124286,29.2860675 185.915943,29.7466155 C185.707599,30.2071635 185.397831,30.6046544 184.986627,30.9391 C184.575423,31.2735456 184.065539,31.5339706 183.456957,31.7203829 C182.848376,31.9067952 182.143858,32 181.343381,32 C180.696421,32 180.06866,31.9205018 179.460078,31.7615031 C178.851497,31.6025044 178.314199,31.3530446 177.848168,31.0131163 C177.382137,30.673188 177.01206,30.24006 176.737924,29.7137194 C176.463788,29.1873788 176.332205,28.5623586 176.34317,27.8386403 L178.843276,27.8386403 Z M187.758126,19.9929147 L190.340471,19.9929147 L190.340471,24.4996837 L195.093961,24.4996837 L195.093961,19.9929147 L197.676307,19.9929147 L197.676307,31.736831 L195.093961,31.736831 L195.093961,26.6708279 L190.340471,26.6708279 L190.340471,31.736831 L187.758126,31.736831 L187.758126,19.9929147 Z M207.101047,25.5194635 L209.10771,25.5194635 C209.403777,25.5194635 209.688874,25.497533 209.963009,25.4536713 C210.237145,25.4098096 210.478381,25.3248288 210.686724,25.1987263 C210.895067,25.0726239 211.062288,24.8944383 211.18839,24.6641643 C211.314492,24.4338903 211.377543,24.1323455 211.377543,23.7595209 C211.377543,23.3866963 211.314492,23.0851515 211.18839,22.8548775 C211.062288,22.6246035 210.895067,22.4464179 210.686724,22.3203155 C210.478381,22.194213 210.237145,22.1092322 209.963009,22.0653705 C209.688874,22.0215088 209.403777,21.9995783 209.10771,21.9995783 L207.101047,21.9995783 L207.101047,25.5194635 Z M204.518701,19.9929147 L209.814977,19.9929147 C210.549661,19.9929147 211.174681,20.099826 211.690056,20.3136519 C212.205431,20.5274778 212.624852,20.8098333 212.948333,21.1607271 C213.271813,21.5116208 213.507566,21.911853 213.655599,22.3614356 C213.803633,22.8110182 213.877648,23.277042 213.877648,23.7595209 C213.877648,24.2310344 213.803633,24.6943168 213.655599,25.1493821 C213.507566,25.6044475 213.271813,26.007421 212.948333,26.3583147 C212.624852,26.7092085 212.205431,26.991564 211.690056,27.2053899 C211.174681,27.4192158 210.549661,27.5261271 209.814977,27.5261271 L207.101047,27.5261271 L207.101047,31.736831 L204.518701,31.736831 L204.518701,19.9929147 Z M217.562014,25.914217 C217.562014,26.4076614 217.619582,26.8873917 217.734719,27.3534225 C217.849856,27.8194532 218.033524,28.2388746 218.285729,28.6116992 C218.537934,28.9845238 218.866892,29.2833273 219.272612,29.5081186 C219.678333,29.7329099 220.17177,29.8453039 220.752938,29.8453039 C221.334106,29.8453039 221.827543,29.7329099 222.233264,29.5081186 C222.638985,29.2833273 222.967942,28.9845238 223.220147,28.6116992 C223.472352,28.2388746 223.65602,27.8194532 223.771157,27.3534225 C223.886294,26.8873917 223.943862,26.4076614 223.943862,25.914217 C223.943862,25.3988418 223.886294,24.8999223 223.771157,24.4174434 C223.65602,23.9349645 223.472352,23.5045778 223.220147,23.1262705 C222.967942,22.7479632 222.638985,22.4464184 222.233264,22.2216271 C221.827543,21.9968358 221.334106,21.8844418 220.752938,21.8844418 C220.17177,21.8844418 219.678333,21.9968358 219.272612,22.2216271 C218.866892,22.4464184 218.537934,22.7479632 218.285729,23.1262705 C218.033524,23.5045778 217.849856,23.9349645 217.734719,24.4174434 C217.619582,24.8999223 217.562014,25.3988418 217.562014,25.914217 Z M214.979668,25.914217 C214.979668,25.0369827 215.111251,24.2228117 215.374422,23.4716798 C215.637592,22.7205479 216.015894,22.0653733 216.509338,21.5061364 C217.002782,20.9468995 217.608613,20.5082889 218.326849,20.1902914 C219.045085,19.872294 219.853773,19.7132976 220.752938,19.7132976 C221.663069,19.7132976 222.474498,19.872294 223.187251,20.1902914 C223.900004,20.5082889 224.503094,20.9468995 224.996538,21.5061364 C225.489982,22.0653733 225.868284,22.7205479 226.131454,23.4716798 C226.394625,24.2228117 226.526208,25.0369827 226.526208,25.914217 C226.526208,26.7695205 226.394625,27.5672436 226.131454,28.3074101 C225.868284,29.0475766 225.489982,29.6917859 224.996538,30.2400574 C224.503094,30.7883288 223.900004,31.2187155 223.187251,31.5312302 C222.474498,31.843745 221.663069,32 220.752938,32 C219.853773,32 219.045085,31.843745 218.326849,31.5312302 C217.608613,31.2187155 217.002782,30.7883288 216.509338,30.2400574 C216.015894,29.6917859 215.637592,29.0475766 215.374422,28.3074101 C215.111251,27.5672436 214.979668,26.7695205 214.979668,25.914217 Z M230.868496,25.3056387 L233.697563,25.3056387 C234.289696,25.3056387 234.733789,25.1740556 235.029856,24.9108852 C235.325923,24.6477149 235.473954,24.2200696 235.473954,23.6279364 C235.473954,23.0577341 235.325923,22.6437953 235.029856,22.3861077 C234.733789,22.1284201 234.289696,21.9995783 233.697563,21.9995783 L230.868496,21.9995783 L230.868496,25.3056387 Z M228.28615,19.9929147 L234.618654,19.9929147 C235.144995,19.9929147 235.619243,20.0778955 236.041412,20.2478596 C236.463581,20.4178238 236.825435,20.6508357 237.126984,20.9469023 C237.428533,21.2429689 237.658804,21.5856334 237.817802,21.9749062 C237.976801,22.3641789 238.056299,22.7836003 238.056299,23.2331829 C238.056299,23.924005 237.91101,24.5216119 237.620426,25.0260217 C237.329842,25.5304314 236.855594,25.9142157 236.197668,26.177386 L236.197668,26.2102821 C236.515666,26.2980056 236.778832,26.4323301 236.987175,26.6132597 C237.195518,26.7941893 237.36548,27.0080119 237.497065,27.2547341 C237.62865,27.5014563 237.724596,27.7728466 237.784906,28.0689132 C237.845216,28.3649798 237.886336,28.6610419 237.908267,28.9571085 C237.919232,29.1435208 237.930197,29.3628261 237.941163,29.615031 C237.952128,29.8672359 237.971318,30.1249196 237.998731,30.3880899 C238.026145,30.6512602 238.070006,30.90072 238.130316,31.1364767 C238.190625,31.3722335 238.281089,31.5723496 238.401709,31.736831 L235.819363,31.736831 C235.676812,31.3640064 235.58909,30.9199132 235.556194,30.404538 C235.523298,29.8891628 235.473954,29.3957259 235.408161,28.9242124 C235.320438,28.3101483 235.134028,27.8605725 234.848927,27.5754713 C234.563826,27.2903701 234.097802,27.1478217 233.450842,27.1478217 L230.868496,27.1478217 L230.868496,31.736831 L228.28615,31.736831 L228.28615,19.9929147 Z M242.760445,22.1640589 L239.24056,22.1640589 L239.24056,19.9929147 L248.862676,19.9929147 L248.862676,22.1640589 L245.342791,22.1640589 L245.342791,31.736831 L242.760445,31.736831 L242.760445,22.1640589 Z M251.97136,27.8386403 C251.97136,28.2333958 252.042634,28.5678363 252.185185,28.8419721 C252.327735,29.1161078 252.516886,29.3381544 252.752643,29.5081186 C252.9884,29.6780828 253.265273,29.8041833 253.58327,29.886424 C253.901267,29.9686647 254.230225,30.0097845 254.570154,30.0097845 C254.800428,30.0097845 255.047146,29.9905953 255.310316,29.9522163 C255.573487,29.9138373 255.820205,29.8398217 256.050479,29.7301674 C256.280753,29.6205131 256.472645,29.4697407 256.626161,29.2778457 C256.779677,29.0859507 256.856434,28.8419736 256.856434,28.545907 C256.856434,28.2279095 256.755006,27.9702258 256.552145,27.772848 C256.349285,27.5754703 256.083377,27.4109913 255.754414,27.2794062 C255.425451,27.147821 255.052632,27.0326857 254.635946,26.9339969 C254.21926,26.835308 253.797097,26.7256554 253.369445,26.6050356 C252.930828,26.4953813 252.503183,26.3610568 252.086496,26.2020581 C251.66981,26.0430594 251.296991,25.8374607 250.968028,25.5852558 C250.639065,25.3330509 250.373158,25.0177995 250.170297,24.6394922 C249.967437,24.2611849 249.866008,23.8033851 249.866008,23.266079 C249.866008,22.6629804 249.99485,22.139389 250.252537,21.6952891 C250.510225,21.2511892 250.847407,20.8811115 251.264093,20.5850449 C251.68078,20.2889783 252.152286,20.069673 252.678627,19.9271224 C253.204967,19.7845718 253.7313,19.7132976 254.257641,19.7132976 C254.871705,19.7132976 255.461088,19.7818305 256.025807,19.9188984 C256.590527,20.0559663 257.092188,20.2780129 257.530805,20.5850449 C257.969422,20.8920769 258.317569,21.2840852 258.575257,21.7610814 C258.832944,22.2380775 258.961786,22.8164953 258.961786,23.4963519 L256.461681,23.4963519 C256.43975,23.1454582 256.365734,22.8548786 256.239632,22.6246046 C256.11353,22.3943306 255.946309,22.2134037 255.737966,22.0818186 C255.529623,21.9502334 255.291128,21.8570287 255.022475,21.8022015 C254.753822,21.7473744 254.460502,21.7199612 254.142504,21.7199612 C253.934161,21.7199612 253.725821,21.7418917 253.517478,21.7857534 C253.309135,21.8296152 253.119984,21.906372 252.95002,22.0160263 C252.780055,22.1256806 252.640248,22.2627464 252.530594,22.4272279 C252.42094,22.5917093 252.366113,22.8000493 252.366113,23.0522542 C252.366113,23.2825282 252.409974,23.4689378 252.497698,23.6114883 C252.585421,23.7540389 252.758124,23.8856221 253.015812,24.0062418 C253.273499,24.1268616 253.629871,24.2474795 254.084936,24.3680992 C254.540001,24.4887189 255.134867,24.6422326 255.869551,24.8286449 C256.088859,24.8725067 256.393145,24.9520048 256.782418,25.0671418 C257.171691,25.1822788 257.558216,25.365947 257.942006,25.6181519 C258.325796,25.8703568 258.657496,26.2075387 258.937114,26.6297077 C259.216733,27.0518768 259.35654,27.5919161 259.35654,28.2498418 C259.35654,28.7871479 259.25237,29.2860675 259.044027,29.7466155 C258.835683,30.2071635 258.525915,30.6046544 258.114711,30.9391 C257.703507,31.2735456 257.193623,31.5339706 256.585041,31.7203829 C255.97646,31.9067952 255.271942,32 254.471465,32 C253.824505,32 253.196744,31.9205018 252.588162,31.7615031 C251.979581,31.6025044 251.442283,31.3530446 250.976252,31.0131163 C250.510221,30.673188 250.140144,30.24006 249.866008,29.7137194 C249.591872,29.1873788 249.460289,28.5623586 249.471254,27.8386403 L251.97136,27.8386403 Z" id="ASSOCIATEDBRITISHPORTS" fill-rule="nonzero"></path>
        </g>
    </g>
</svg>